<svg data-name="Layer 1" xmlns="http://www.w3.org/2000/svg" viewBox="0 0 19.52 19.52"><title>Artboard 1</title><path d="M12.39 7.34a.63.63 0 0 0-.63-.63h-4a.63.63 0 0 0-.63.63v4h1.12v4.73h3v-4.73h1.11v-4z" fill="#878787"/><circle cx="9.76" cy="4.82" r="1.37" fill="#878787"/><path d="M9.75 0a9.3 9.3 0 0 0-6.87 2.83A9.54 9.54 0 0 0 0 9.76a9.39 9.39 0 0 0 2.88 6.88 9.38 9.38 0 0 0 6.87 2.88 9.64 9.64 0 0 0 7-2.9 9.26 9.26 0 0 0 2.79-6.86 9.42 9.42 0 0 0-2.83-6.93A9.44 9.44 0 0 0 9.75 0zm0 1.76a7.65 7.65 0 0 1 5.67 2.34 7.65 7.65 0 0 1 2.35 5.66 7.45 7.45 0 0 1-2.3 5.59 7.84 7.84 0 0 1-5.69 2.39 7.71 7.71 0 0 1-5.65-2.37 7.67 7.67 0 0 1-2.37-5.61A7.79 7.79 0 0 1 4.15 4.1a7.57 7.57 0 0 1 5.62-2.34z" fill="#878787"/></svg>