<svg data-name="Layer 1" xmlns="http://www.w3.org/2000/svg" viewBox="0 0 19.5 19.52"><title>Artboard 1</title><path d="M16.67 2.83a9.43 9.43 0 0 1 2.83 6.93 9.27 9.27 0 0 1-2.78 6.86 9.62 9.62 0 0 1-7 2.9 9.36 9.36 0 0 1-6.86-2.88A9.39 9.39 0 0 1 0 9.76a9.55 9.55 0 0 1 2.88-6.93A9.28 9.28 0 0 1 9.74 0a9.42 9.42 0 0 1 6.93 2.83zM4.15 4.1a7.79 7.79 0 0 0-2.39 5.66 7.67 7.67 0 0 0 2.37 5.61 7.7 7.7 0 0 0 5.64 2.37 7.82 7.82 0 0 0 5.69-2.39 7.45 7.45 0 0 0 2.29-5.59 7.72 7.72 0 0 0-2.33-5.68 7.7 7.7 0 0 0-5.66-2.32A7.56 7.56 0 0 0 4.15 4.1zm4.2 4.71A1.17 1.17 0 0 0 7.25 8Q6 8 6 9.75t1.29 1.74a1.25 1.25 0 0 0 1.22-.85l1.19.64a2.76 2.76 0 0 1-2.6 1.51A2.82 2.82 0 0 1 5 12a3 3 0 0 1-.8-2.24A3 3 0 0 1 5 7.55a2.76 2.76 0 0 1 2-.82 2.72 2.72 0 0 1 2.64 1.42zm5.61 0A1.16 1.16 0 0 0 12.88 8q-1.32 0-1.32 1.74t1.32 1.74a1.21 1.21 0 0 0 1.2-.85l1.22.64a2.76 2.76 0 0 1-2.55 1.52 2.82 2.82 0 0 1-2.1-.81 3 3 0 0 1-.79-2.22 3 3 0 0 1 .8-2.21 2.74 2.74 0 0 1 2-.82 2.71 2.71 0 0 1 2.58 1.42z" fill="#878787"/></svg>