<svg data-name="Layer 1" xmlns="http://www.w3.org/2000/svg" viewBox="0 0 19.53 19.52"><title>Artboard 1</title><path d="M9.75 0a9.3 9.3 0 0 0-6.87 2.83A9.54 9.54 0 0 0 0 9.76a9.38 9.38 0 0 0 2.88 6.88 9.38 9.38 0 0 0 6.87 2.88 9.64 9.64 0 0 0 7-2.9 9.27 9.27 0 0 0 2.79-6.86 9.42 9.42 0 0 0-2.83-6.93A9.45 9.45 0 0 0 9.75 0zm0 1.76a7.65 7.65 0 0 1 5.67 2.34 7.65 7.65 0 0 1 2.34 5.66 7.45 7.45 0 0 1-2.3 5.59 7.84 7.84 0 0 1-5.69 2.39 7.71 7.71 0 0 1-5.64-2.37 7.66 7.66 0 0 1-2.37-5.61 7.78 7.78 0 0 1 2.4-5.66 7.57 7.57 0 0 1 5.61-2.34z" fill="#878787"/><path d="M13.45 7.45H6.36v1.68h7.1zm0 3.14H6.36v1.68h7.1z" fill="#878787"/></svg>