<svg data-name="Layer 1" xmlns="http://www.w3.org/2000/svg" viewBox="0 0 33.6 32"><title>Artboard 1</title><path d="M7.9 0c-.69 0-1.17.39-1.19.65a.91.91 0 0 0 .41.77c1.83 1.43-3.45 4.22-2.8 9.9.46 4 5.08 9.49 6 9.49h.09c.74-.48-2.17-5.74-2.83-7.47C6.1 9.45 8.33 6.95 9.2 5.5c1.14-1.91 1.42-3.71.53-4.58A2.68 2.68 0 0 0 7.9 0" fill="#878787"/><path d="M21.22 1.59H21c-6.73.3-7.72 8.56-7.73 11.55 0 .26 0 1.57-.28 1.57-.06 0-.13-.05-.23-.18-.35-.5-1.35-2-1.65-2.34a.4.4 0 0 0-.32-.17c-.24 0-.46.25-.36.75A13.17 13.17 0 0 0 12.14 17a2.27 2.27 0 0 0 1.57.81c.64 0 1.3-.45 1.67-1.91.62-2.27-.12-11.28 7.55-12.3a.76.76 0 0 0 .48-1.23 3 3 0 0 0-2.19-.78" fill="#878787"/><path d="M25.32 9.66c-.24-.08-.25-.23-.07-.49.31-.46 1.56-3.21 0-4.66a1.92 1.92 0 0 0-.46-.33c-.28-.14-.64 0-.64.49 0 3.5-1.68 4.17-4.09 4.19h-.29v1.61l2.13.15c2.3.18 3.69 1.7 3.69 3.45A3.52 3.52 0 0 1 22 17.54a3.47 3.47 0 0 1-1.83-.47l-.34-.24v3.43a6 6 0 0 0 2.65.56c3.1 0 7-2.28 7-6.28a5.55 5.55 0 0 0-4.08-4.88m8.09 21.42a1.42 1.42 0 0 0-.43-.31 1 1 0 0 1-.23-.15.23.23 0 0 1 0-.31.28.28 0 0 1 .19-.05.42.42 0 0 1 .18 0 .45.45 0 0 1 .15.12l.22-.21a.7.7 0 0 0-.24-.16A.78.78 0 0 0 33 30a.59.59 0 0 0-.41.14.47.47 0 0 0-.15.37.54.54 0 0 0 0 .17.43.43 0 0 0 .08.14.85.85 0 0 0 .16.14l.25.15a.79.79 0 0 1 .25.18.29.29 0 0 1 .06.18.26.26 0 0 1-.08.2.31.31 0 0 1-.22.07.44.44 0 0 1-.21-.05.92.92 0 0 1-.22-.18l-.21.22a1 1 0 0 0 .29.21.83.83 0 0 0 .41.06.63.63 0 0 0 .44-.15.53.53 0 0 0 .16-.41.56.56 0 0 0-.11-.36m-2.49.58v-.44h.71v-.3H31v-.4h.8v-.3h-1.1v2h1.1v-.3zm-1.63 0V30H29v2h1v-.3zm-1.64 0V30h-.33v2h1v-.3zm-1.85 0v-.44h.71v-.3h-.7v-.4h.8v-.3h-1.1v2h1.1v-.3zM24.36 31l.52-.91h-.36l-.3.56v.11a.67.67 0 0 0 0 .13.65.65 0 0 0 0-.13v-.11l-.3-.56h-.36l.52.91-.54 1h.36l.31-.6a.66.66 0 0 0 .05-.12.58.58 0 0 0 0-.12.71.71 0 0 0 0 .13.61.61 0 0 0 0 .11l.31.6h.36zm-1.54-1h-.32v1.14a.66.66 0 0 1-.11.42.5.5 0 0 1-.69 0 .66.66 0 0 1-.11-.42V30h-.32v1.1a1.36 1.36 0 0 0 0 .4.65.65 0 0 0 .15.26.76.76 0 0 0 .26.18.86.86 0 0 0 .64 0 .76.76 0 0 0 .26-.18.66.66 0 0 0 .15-.26 1.35 1.35 0 0 0 0-.4zm-2.65 1.19l-.07-.08L20 31h.13a.4.4 0 0 0 .31-.15.53.53 0 0 0 .13-.36.52.52 0 0 0-.16-.41.71.71 0 0 0-.48-.14h-.53v2h.31v-.98.11l.08.13.51.75h.35zm0-.42a.35.35 0 0 1-.24.07h-.23v-.49h.3a.35.35 0 0 1 .24.07.27.27 0 0 1 .08.21.28.28 0 0 1-.08.22m-1.58.31a.44.44 0 0 0-.27-.15.4.4 0 0 0 .22-.14.42.42 0 0 0 .07-.25.47.47 0 0 0-.16-.38A.73.73 0 0 0 18 30h-.55v2H18a.71.71 0 0 0 .5-.16.55.55 0 0 0 .18-.42.47.47 0 0 0-.1-.3m-.35-.34a.29.29 0 0 1-.21.07h-.29a.11.11 0 0 0 0-.06v-.46H18a.39.39 0 0 1 .25.06.24.24 0 0 1 .08.2.27.27 0 0 1-.07.21m.06.87a.37.37 0 0 1-.26.08h-.3v-.51h.46a.26.26 0 0 1 .11.07.32.32 0 0 1 .08.21.3.3 0 0 1-.09.23m-1.63-.5H16v.29h.68zm-2.06.55v-.44h.71v-.3h-.7v-.4h.8v-.3h-1.1v2h1.1v-.3zM13.46 30h-.32v2h.32zm-1.13 0H12v1.2a1.17 1.17 0 0 0 0 .18v.22a1.89 1.89 0 0 0-.08-.19l-.09-.15L11 30h-.29v2h.31v-1.25a1.07 1.07 0 0 0 0-.16v-.24l.08.2.09.14L12 32h.29zm-2.55.25a1 1 0 0 0-.72-.25.93.93 0 0 0-.7.29 1.11 1.11 0 0 0 0 1.47 1 1 0 0 0 1.42 0 1.11 1.11 0 0 0 0-1.47m-.23 1.26a.68.68 0 0 1-1 0 .83.83 0 0 1 0-1 .62.62 0 0 1 .48-.2.61.61 0 0 1 .48.2.82.82 0 0 1 0 1M7 31.66V30h-.41v2h1v-.3zm-1.64 0V30h-.41v2H6v-.3zM3.64 30h-.28l-.72 2H3l.21-.59h.65L4 32h.32zm.11 1.1h-.51l.19-.54a.46.46 0 0 0 0-.1v-.14.14a.49.49 0 0 0 0 .1l.19.54zM2 30l-.37 1.3a1 1 0 0 0 0 .14 1 1 0 0 0 0-.13l-.34-1-.34 1a.86.86 0 0 0 0 .13.91.91 0 0 0 0-.14L.35 30H0l.6 2h.29l.25-.79a.6.6 0 0 0 0-.1v-.16.16a.58.58 0 0 0 0 .11l.25.79h.29l.6-2zm31.55-4.89H33v2.2a2.15 2.15 0 0 0 0 .32q0 .17.08.4a3.38 3.38 0 0 0-.14-.35 2.07 2.07 0 0 0-.16-.28l-1.58-2.31h-.53v3.61h.57v-2.21a1.85 1.85 0 0 0 0-.28q0-.14-.09-.43c.06.16.1.28.14.36a1.92 1.92 0 0 0 .16.26L33 28.7h.53zm-4.6.45a1.74 1.74 0 0 0-1.31-.56 1.69 1.69 0 0 0-1.28.53 2 2 0 0 0 0 2.67 1.86 1.86 0 0 0 2.58 0 2 2 0 0 0 0-2.67m-.42 2.28a1.24 1.24 0 0 1-1.74 0 1.5 1.5 0 0 1 0-1.88 1.14 1.14 0 0 1 .87-.36 1.12 1.12 0 0 1 .86.36 1.5 1.5 0 0 1 0 1.88m-3.91-2.74H24v3.59h.59zm-1.74 0h-2.11l-.08.54h.87v.06a.2.2 0 0 0 0 .06v2.97h.58v-2.95a.21.21 0 0 0 0-.07v-.06H23zm-3.94 0h-.51l-1.3 3.58h.59l.38-1.08h1.18l.38 1.08h.59zm.2 2h-.9l.34-1a.87.87 0 0 0 0-.18v-.26.26a.85.85 0 0 0 0 .18l.34 1zm-3.85.16a.76.76 0 0 0-.12-.14L15 27h.22a.71.71 0 0 0 .56-.26 1 1 0 0 0 .23-.65.94.94 0 0 0-.3-.75 1.29 1.29 0 0 0-.87-.26h-.94v3.62h.57v-1.57a2 2 0 0 0 0-.22 1.68 1.68 0 0 0 .09.2l.15.23.92 1.37h.64zm0-.76a.64.64 0 0 1-.43.13h-.47v-.06a.17.17 0 0 0 0-.06v-.94h.48a.63.63 0 0 1 .43.12.49.49 0 0 1 .14.39.5.5 0 0 1-.14.39M11.41 24l-.25.69h.43l.46-.69zm-.13 4.13h-.13v-.05a.21.21 0 0 0 0-.07v-.79a.21.21 0 0 0 0-.07v-.06h1.33v-.49h-1.33v-.06a.18.18 0 0 0 0-.06v-.73a.2.2 0 0 0 0-.07v-.06h1.51l-.06-.55h-2v3.63h2l.07-.55zm-2.41-2.51a1.9 1.9 0 0 0-1.36-.5h-1v3.58h.94a1.92 1.92 0 0 0 1.38-.51 1.82 1.82 0 0 0 0-2.57m-.37 2.18a1.3 1.3 0 0 1-.94.35h-.41v-.05a.26.26 0 0 0 0-.07v-2.3a.19.19 0 0 0 0-.06v-.06h.44a1.26 1.26 0 0 1 .91.35 1.2 1.2 0 0 1 .36.9 1.19 1.19 0 0 1-.37.9M4.05 24l-.25.69h.43l.48-.69zm-.13 4.13H3.8v-.05a.21.21 0 0 0 0-.07v-.79a.21.21 0 0 0 0-.07v-.06h1.33v-.49H3.79v-.06a.18.18 0 0 0 0-.06v-.73a.2.2 0 0 0 0-.07v-.06h1.52l-.06-.55h-2v3.63h2l.07-.55zm-1.85-3h-2v3.57h.57v-1.45a.22.22 0 0 0 0-.07v-.06h1.3v-.52H.61v-.06a.16.16 0 0 0 0-.06v-.73a.37.37 0 0 0 0-.08h1.56z" fill="#878787"/></svg>