<svg data-name="Layer 1" xmlns="http://www.w3.org/2000/svg" viewBox="0 0 42.61 85.04"><title>Artboard 1</title><path fill="#d8d8d8" d="M42.62 46.02L0 34.09V0h42.62v46.02z"/><path fill="#343332" d="M42.62 85.04H0V33.9l42.62 11.93v39.21zM36.78 21.58c-1.07-.81-1.57 0-2.24 0s-1.1-1-1.54-.74c-.84.43.33 1.94.85 2.24a12.55 12.55 0 0 0 1.16.59 1.7 1.7 0 0 1 1 1.54 2.94 2.94 0 0 1 0 .74c-.3 1.31-2.59 2.49-3.91 1.6a3 3 0 0 1-1.38-1.94c-.35-1.72-1.59-3-2-4.66-.24-1-.42-2.1-.69-3.13s-.55-2.11-.77-3.08a27.64 27.64 0 0 0-.94-3.05c-1.25-3.28-1.82-3-1.82-3s.46.91 2.12 8.94a47 47 0 0 0 1.11 5c.16.42.43 1.31.61 1.7.53 1.15 1.92 2.9 2 4.47.05.91.16 1.66.18 2.35a7.53 7.53 0 0 0 .23 1.38c.34 1 3.09 4.06 6 4.06v-2.4a10.66 10.66 0 0 1-5.7-1.8 6.34 6.34 0 0 1 .35-1.68 2.75 2.75 0 0 1 2.36-1.92 17.57 17.57 0 0 1 3 .31zM24.17 13.07c-.11 1.76-2.83 4.16-3.68 5.7a11.33 11.33 0 0 0-1.06 2.81A7.49 7.49 0 0 0 20 26.2c.9 2.16-.12 2.95.58 2.51.87-.71.74-2.36.67-3.4a14.55 14.55 0 0 1 0-2.79 13.17 13.17 0 0 1 2.34-5.28 4.82 4.82 0 0 0 .51-4.18M24.72 18.06s.29 1.39-.94 5c-3.21 9.36 2.92 10.24 4.67 12.45 0 0 .68-1-2.11-4-1-1.12-1.93-3.57-1.13-7.08 1.15-5.08-.49-6.33-.49-6.33M18.65 11.92a4.52 4.52 0 0 1-.16-1.49c.15-2.2 2.14-3.09 2.64-3.42 0 0 .9-.61 1-1.23A3 3 0 0 1 21 9.42a6 6 0 0 0-2.31 2.5M23.68 9.8c.11.22.94 1.44-2.45 4.23s-2.33 4.79-2.33 4.79-3.61-2 .55-5.48 3.31-4.17 3.31-4.17a1 1 0 0 1 .92.63M28.08 10.87c.59.08 1 1.9 2.31 2.3 1 .29 2.05.13 2.29.73-.46.24-.1 1 .36.91.39-1.06.58-5.19-4.96-3.94zm1.82.82c0-.13.12 0 .27-.12a1.65 1.65 0 0 1 .58-.48 1 1 0 0 1 .61 0c.12 0 0 .32 0 .4s-.72-.09-.72.32c0 .66.9 0 1.36 0 .18 1.66-2.49 1.19-2.09-.12z"/><path d="M7.64 52.05h3.3V53H8.58v1.32h2.27v.91H8.58v2.2h-.94zM11.54 51.6l.83-.08h.12v5.88h-.95zM16.77 57.48a1.14 1.14 0 0 1-.47-.09 1.32 1.32 0 0 1-.47-.35 2.46 2.46 0 0 1-.49.31 1.5 1.5 0 0 1-.65.13 1.87 1.87 0 0 1-.62-.1 1.09 1.09 0 0 1-.54-.39 1.42 1.42 0 0 1-.23-.85 1.08 1.08 0 0 1 .32-.86 1.73 1.73 0 0 1 1.16-.28h.86v-.21a.75.75 0 0 0-.24-.62.9.9 0 0 0-.58-.17 2.25 2.25 0 0 0-.57.09 3.21 3.21 0 0 0-.56.2l-.22-.83A3.72 3.72 0 0 1 15 53.1a1.82 1.82 0 0 1 1.1.31 1.27 1.27 0 0 1 .47 1.08v1.57a.54.54 0 0 0 .18.44.94.94 0 0 0 .45.19zm-1.13-1.78a5.13 5.13 0 0 0-1 0 .4.4 0 0 0-.37.43.53.53 0 0 0 .59.54 1 1 0 0 0 .49-.13.67.67 0 0 0 .31-.62zM17.78 53.19h.8l.09.33a2.47 2.47 0 0 1 1.33-.41 1.61 1.61 0 0 1 1.07.35 1.45 1.45 0 0 1 .46 1.14v2.8h-.95v-2.52a.81.81 0 0 0-.29-.67 1.07 1.07 0 0 0-.67-.19 1.77 1.77 0 0 0-.92.26v3.12h-.95zM26.13 57.4h-.72l-.17-.32a1.78 1.78 0 0 1-1.13.4 1.65 1.65 0 0 1-1.35-.62 2.25 2.25 0 0 1-.44-1.4 2.41 2.41 0 0 1 .64-1.78 2.23 2.23 0 0 1 1.61-.58 4.9 4.9 0 0 1 .62 0v-1.5l.8-.08h.15zm-.95-3.32a2.85 2.85 0 0 0-.68-.08 1.17 1.17 0 0 0-.88.32 1.36 1.36 0 0 0-.33 1 1.51 1.51 0 0 0 .26.87.9.9 0 0 0 .76.4 1.72 1.72 0 0 0 .86-.26zM30.3 56.31v.92a2.41 2.41 0 0 1-.6.19 3.22 3.22 0 0 1-.6.06 2.23 2.23 0 0 1-1.52-.54 2.14 2.14 0 0 1-.65-1.64 2.28 2.28 0 0 1 .59-1.63 1.8 1.8 0 0 1 1.3-.56 2 2 0 0 1 .62.1 1.48 1.48 0 0 1 .72.53 2.14 2.14 0 0 1 .35 1.26v.63H28a1.1 1.1 0 0 0 .48.72 1.4 1.4 0 0 0 .77.21 2.28 2.28 0 0 0 1.06-.28zm-.65-1.41a1.06 1.06 0 0 0-.28-.67.73.73 0 0 0-.52-.2.84.84 0 0 0-.56.21 1.12 1.12 0 0 0-.35.67zM33.83 54.23a1.34 1.34 0 0 0-.71-.21 1.39 1.39 0 0 0-.85.31v3.07h-.95v-4.21h.8l.1.34a1.64 1.64 0 0 1 1.07-.43 2.44 2.44 0 0 1 .43 0 1.42 1.42 0 0 1 .41.13zM34.44 56.3a2.88 2.88 0 0 0 .46.19 1.84 1.84 0 0 0 .58.1 1 1 0 0 0 .48-.11.42.42 0 0 0 .22-.38.45.45 0 0 0-.28-.41 1.67 1.67 0 0 0-.28-.11 4.52 4.52 0 0 1-.65-.24 1 1 0 0 1-.49-.51 1.29 1.29 0 0 1 .37-1.41 1.67 1.67 0 0 1 1-.29 2.89 2.89 0 0 1 .94.16v.85a1.59 1.59 0 0 0-.73-.17 1.07 1.07 0 0 0-.47.09.32.32 0 0 0-.2.28c0 .15.11.24.28.32l.28.11a3.72 3.72 0 0 1 .64.27 1.08 1.08 0 0 1 .48.56 1.33 1.33 0 0 1 .07.47 1.27 1.27 0 0 1-.49 1.07 1.84 1.84 0 0 1-1.12.34 2 2 0 0 1-1.08-.29zM16.17 63.9a2 2 0 0 0 .41.12 2.64 2.64 0 0 0 .51.05 1.34 1.34 0 0 0 .67-.15.59.59 0 0 0 .3-.54.65.65 0 0 0-.37-.6c-.17-.1-.39-.22-.61-.33a3.49 3.49 0 0 1-.56-.32 1 1 0 0 1-.33-.8 1 1 0 0 1 .4-.88 1.51 1.51 0 0 1 .9-.25 2.65 2.65 0 0 1 .74.11v.42a3.83 3.83 0 0 0-.73-.09 1.15 1.15 0 0 0-.59.13.55.55 0 0 0-.26.51.54.54 0 0 0 .18.44 2.63 2.63 0 0 0 .52.3 7.3 7.3 0 0 1 .66.36 1.27 1.27 0 0 1 .38.33 1 1 0 0 1 .15.54 1.13 1.13 0 0 1-.47 1 1.75 1.75 0 0 1-1 .31 2 2 0 0 1-.86-.18zM18.94 61.16h.37v-.59l.46-.09v.68h.92v.46h-.89v1.62a1 1 0 0 0 .17.64.51.51 0 0 0 .42.19 1.29 1.29 0 0 0 .62-.2l.13.45a2 2 0 0 1-.81.2.94.94 0 0 1-.73-.3 1.42 1.42 0 0 1-.3-1v-1.6h-.37zM24 64.53a.85.85 0 0 1-.5-.46 1.39 1.39 0 0 1-.43.33 1.34 1.34 0 0 1-.59.13 1.22 1.22 0 0 1-.7-.2.93.93 0 0 1-.37-.82.86.86 0 0 1 .29-.71 1.53 1.53 0 0 1 1-.25h.66v-.41a.63.63 0 0 0-.18-.5.68.68 0 0 0-.44-.13 2.07 2.07 0 0 0-1 .24l-.13-.43a4.12 4.12 0 0 1 .57-.2 2.54 2.54 0 0 1 .63-.06 1.07 1.07 0 0 1 .72.23 1.08 1.08 0 0 1 .31.86v1a1.29 1.29 0 0 0 .07.5.57.57 0 0 0 .38.33zM23.36 63a5 5 0 0 0-1.06.05.43.43 0 0 0-.38.45.51.51 0 0 0 .24.46.64.64 0 0 0 .31.1 1.07 1.07 0 0 0 .58-.14.71.71 0 0 0 .31-.66zM24.57 61.16h.37v-.59l.46-.09v.68h.92v.46h-.92v1.62a1 1 0 0 0 .17.64.51.51 0 0 0 .42.19 1.29 1.29 0 0 0 .62-.2l.13.45a2 2 0 0 1-.81.2.94.94 0 0 1-.73-.3 1.42 1.42 0 0 1-.3-1v-1.6h-.37zM29.62 62.94h-2.06a1.27 1.27 0 0 0 .35.85 1 1 0 0 0 .74.28 2 2 0 0 0 .89-.24v.45a2.08 2.08 0 0 1-.95.24 1.48 1.48 0 0 1-1.08-.42 1.84 1.84 0 0 1-.46-1.33 1.94 1.94 0 0 1 .34-1.19 1.28 1.28 0 0 1 1.08-.48 1.13 1.13 0 0 1 .74.22 1 1 0 0 1 .32.53 2.57 2.57 0 0 1 .07.64zm-.48-.45a1.38 1.38 0 0 0-.14-.66.55.55 0 0 0-.52-.28.79.79 0 0 0-.6.26 1.26 1.26 0 0 0-.29.67zM32 62.82a1.85 1.85 0 0 1 .43-1.22 1.44 1.44 0 0 1 2.19 0 2 2 0 0 1 0 2.42 1.44 1.44 0 0 1-1.1.5 1.39 1.39 0 0 1-1.09-.5 1.85 1.85 0 0 1-.43-1.2zm.49 0a1.48 1.48 0 0 0 .26.89.93.93 0 0 0 .78.38.91.91 0 0 0 .75-.35 1.45 1.45 0 0 0 .25-.88 1.54 1.54 0 0 0-.25-.9.9.9 0 0 0-.77-.38.92.92 0 0 0-.76.36 1.45 1.45 0 0 0-.25.86zM35.42 61.16H36a1.51 1.51 0 0 1 .28-1 .89.89 0 0 1 .71-.28 2.6 2.6 0 0 1 .77.14l-.13.43a1.91 1.91 0 0 0-.58-.12.46.46 0 0 0-.4.18 1.12 1.12 0 0 0-.15.66h.75v.45h-.75v2.85H36v-2.86h-.53zM18.07 68.18h.37v-.59l.46-.09v.68h.92v.46h-.92v1.62a1 1 0 0 0 .17.64.51.51 0 0 0 .42.19 1.29 1.29 0 0 0 .62-.2l.13.45a2 2 0 0 1-.81.2.94.94 0 0 1-.73-.3 1.42 1.42 0 0 1-.3-1v-1.6h-.37zM20.83 66.94l.46-.06v1.57a2.75 2.75 0 0 1 .45-.22 1.4 1.4 0 0 1 .47-.1 1.18 1.18 0 0 1 .82.28 1.26 1.26 0 0 1 .35 1v2.11h-.49V69.4a.89.89 0 0 0-.21-.65.72.72 0 0 0-.51-.17 1.24 1.24 0 0 0-.46.1 3.39 3.39 0 0 0-.41.22v2.59h-.49zM26.69 70h-2.06a1.27 1.27 0 0 0 .35.85 1 1 0 0 0 .74.28 2 2 0 0 0 .89-.24v.45a2.08 2.08 0 0 1-.95.24 1.48 1.48 0 0 1-1.08-.42 1.84 1.84 0 0 1-.46-1.33 1.94 1.94 0 0 1 .34-1.19 1.28 1.28 0 0 1 1.08-.48 1.13 1.13 0 0 1 .74.22 1 1 0 0 1 .32.53 2.57 2.57 0 0 1 .07.64zm-.48-.45a1.38 1.38 0 0 0-.14-.66.55.55 0 0 0-.52-.28.79.79 0 0 0-.6.26 1.27 1.27 0 0 0-.29.67zM31.6 70.51h-1.85l-.34 1h-.51l1.44-4.19H31l1.44 4.19h-.51zM29.9 70h1.54l-.77-2.23zM33 68.18h.33l.11.38a1.07 1.07 0 0 1 .81-.44h.28a1.21 1.21 0 0 1 .27.09l-.17.44a1.19 1.19 0 0 0-.45-.1.84.84 0 0 0-.68.44v2.47H33zM35.09 68.18h.37v-.59l.46-.09v.68h.92v.46H36v1.62a1 1 0 0 0 .17.64.51.51 0 0 0 .42.19 1.29 1.29 0 0 0 .62-.2l.13.45a2 2 0 0 1-.81.2.94.94 0 0 1-.73-.3 1.42 1.42 0 0 1-.3-1v-1.6h-.37z" fill="#d8d8d8"/></svg>