<svg id="icon-camera" data-name="icon-camera" xmlns="http://www.w3.org/2000/svg" viewBox="0 0 36.85 29.48"><title>icon-camera</title><path d="M18.43,11.06A5.53,5.53,0,1,0,24,16.58,5.53,5.53,0,0,0,18.43,11.06ZM33.17,5.53H28.74a1.64,1.64,0,0,1-1.46-1L26.14,1a1.64,1.64,0,0,0-1.46-1H12.16a1.64,1.64,0,0,0-1.46,1L9.56,4.48a1.64,1.64,0,0,1-1.46,1H3.69A3.7,3.7,0,0,0,0,9.21V25.8a3.7,3.7,0,0,0,3.69,3.69H33.17a3.7,3.7,0,0,0,3.69-3.69V9.21A3.7,3.7,0,0,0,33.17,5.53ZM18.43,25.8a9.21,9.21,0,1,1,9.21-9.21A9.21,9.21,0,0,1,18.43,25.8Zm13.45-14a1.29,1.29,0,1,1,1.29-1.29A1.29,1.29,0,0,1,31.88,11.79Z" fill="#606060"/></svg>
