<svg data-name="icon-camera" xmlns="http://www.w3.org/2000/svg" viewBox="0 0 36.85 29.48"><title>icon-camera</title><path d="M18.43 11.06A5.53 5.53 0 1 0 24 16.58a5.53 5.53 0 0 0-5.57-5.52zm14.74-5.53h-4.43a1.64 1.64 0 0 1-1.46-1L26.14 1a1.64 1.64 0 0 0-1.46-1H12.16a1.64 1.64 0 0 0-1.46 1L9.56 4.48a1.64 1.64 0 0 1-1.46 1H3.69A3.7 3.7 0 0 0 0 9.21V25.8a3.7 3.7 0 0 0 3.69 3.69h29.48a3.7 3.7 0 0 0 3.69-3.69V9.21a3.7 3.7 0 0 0-3.69-3.68zM18.43 25.8a9.21 9.21 0 1 1 9.21-9.21 9.21 9.21 0 0 1-9.21 9.21zm13.45-14a1.29 1.29 0 1 1 1.29-1.29 1.29 1.29 0 0 1-1.29 1.28z" fill="#606060"/></svg>