<svg id="Layer_1" data-name="Layer 1" xmlns="http://www.w3.org/2000/svg" viewBox="0 0 13.32 20.53"><title>Artboard 1</title><polygon points="13.32 3.6 13.32 16.93 9.32 16.93 9.32 20.53 7.99 20.53 7.99 16.93 5.36 16.93 5.36 20.53 4.02 20.53 4.02 16.93 0 16.93 0 15.6 11.99 15.6 11.99 4.93 1.33 4.93 1.33 12.96 9.32 12.96 9.32 10.95 2.67 10.95 2.67 6.29 10.66 6.29 10.66 7.62 4 7.62 4 9.62 10.66 9.62 10.66 10.95 10.65 10.95 10.65 12.96 10.66 12.96 10.66 14.29 0 14.29 0 3.6 3.99 3.6 3.99 0 5.33 0 5.33 3.6 7.99 3.6 7.99 0 9.32 0 9.32 3.6 13.32 3.6" fill="#342e30"/></svg>