<svg id="Layer_1" data-name="Layer 1" xmlns="http://www.w3.org/2000/svg" viewBox="0 0 63.84 98.38"><title>Bitsoil Symbol</title><polygon points="63.84 17.26 63.84 81.13 44.65 81.13 44.65 98.38 38.27 98.38 38.27 81.13 25.66 81.13 25.66 98.38 19.28 98.38 19.28 81.13 0 81.13 0 74.75 57.45 74.75 57.45 23.64 6.38 23.64 6.38 62.1 44.65 62.1 44.65 52.48 12.77 52.48 12.77 30.14 51.07 30.14 51.07 36.52 19.15 36.52 19.15 46.1 51.07 46.1 51.07 52.48 51.04 52.48 51.04 62.1 51.07 62.1 51.07 68.48 0 68.48 0 17.26 19.14 17.26 19.14 0 25.52 0 25.52 17.26 38.27 17.26 38.27 0 44.65 0 44.65 17.26 63.84 17.26" fill="#fffcfb"/></svg>
