<svg id="Layer_1" data-name="Layer 1" xmlns="http://www.w3.org/2000/svg" viewBox="0 0 185.68 138.01"><title>Artboard 1</title><path d="M38.76,6.37c-3.28,0-6-2.69-6.62-6.25H23c-.6,3.56-3.33,6.25-6.62,6.25s-6-2.69-6.62-6.25H.13v8c3.72.49,6.58,3.28,6.58,6.67S3.85,20.94.13,21.42v9c3.72.48,6.58,3.28,6.58,6.67S3.85,43.29.13,43.78v7.76c3.56.6,6.25,3.33,6.25,6.62s-2.69,6-6.25,6.62V73.9c3.56.6,6.25,3.33,6.25,6.62s-2.69,6-6.25,6.62v7.15c3.56.6,6.25,3.33,6.25,6.62s-2.69,6-6.25,6.61v9.13c3.56.6,6.25,3.33,6.25,6.62s-2.69,6-6.25,6.62v8H10.77c.6-3.56,3.33-6.25,6.62-6.25s6,2.69,6.62,6.25h8.36c.22-4,3.15-7.23,6.72-7.23s6.5,3.2,6.72,7.23h8.27c.36-3.88,3.22-6.9,6.7-6.9s6.34,3,6.7,6.9h7c0-.16,0-.33,0-.49,0-4.27,3-7.73,6.74-7.73s6.74,3.46,6.74,7.73c0,.17,0,.33,0,.49h8.6c.36-3.88,3.22-6.9,6.7-6.9s6.34,3,6.7,6.9h9.32c.49-3.72,3.28-6.58,6.67-6.58s6.18,2.85,6.67,6.58h9c.22-4,3.15-7.23,6.72-7.23s6.5,3.2,6.72,7.23h8.25c.22-4,3.15-7.23,6.72-7.23s6.5,3.2,6.72,7.23h8.89v-7.31a8.83,8.83,0,0,1-1.15.08c-4.27,0-7.73-3-7.73-6.74s3.46-6.74,7.73-6.74a8.89,8.89,0,0,1,1.15.07v-9a8.88,8.88,0,0,1-1.15.07c-4.27,0-7.73-3-7.73-6.74s3.46-6.74,7.73-6.74a8.83,8.83,0,0,1,1.15.07V87.84a8.89,8.89,0,0,1-1.15.07c-4.27,0-7.73-3-7.73-6.74s3.46-6.74,7.73-6.74a8.88,8.88,0,0,1,1.15.07v-9a8.94,8.94,0,0,1-1.15.07c-4.27,0-7.73-3-7.73-6.74s3.46-6.74,7.73-6.74a8.94,8.94,0,0,1,1.15.07V44.47c-.27,0-.54,0-.82,0-4.27,0-7.73-3-7.73-6.74S180.47,31,184.74,31c.28,0,.55,0,.82,0v-9c-.27,0-.54,0-.82,0-4.27,0-7.73-3-7.73-6.74s3.46-6.74,7.73-6.74c.28,0,.55,0,.82,0V.13h-8.92C176.29,4,173.42,7,169.94,7s-6.34-3-6.7-6.9h-9C153.93,4,151.07,7,147.58,7s-6.34-3-6.7-6.9h-8C132.56,4,129.69,7,126.21,7s-6.34-3-6.7-6.9h-9C110.2,4,107.34,7,103.86,7s-6.34-3-6.7-6.9H89.52C89.16,4,86.29,7,82.81,7s-6.34-3-6.7-6.9h-9C66.8,4,63.94,7,60.46,7s-6.34-3-6.7-6.9H45.37C44.77,3.68,42,6.37,38.76,6.37Z" fill="#d3d3d3"/><path d="M38.76,6.37c-3.28,0-6-2.69-6.62-6.25H23c-.6,3.56-3.33,6.25-6.62,6.25s-6-2.69-6.62-6.25H.13v8c3.72.49,6.58,3.28,6.58,6.67S3.85,20.94.13,21.42v9c3.72.48,6.58,3.28,6.58,6.67S3.85,43.29.13,43.78v7.76c3.56.6,6.25,3.33,6.25,6.62s-2.69,6-6.25,6.62V73.9c3.56.6,6.25,3.33,6.25,6.62s-2.69,6-6.25,6.62v7.15c3.56.6,6.25,3.33,6.25,6.62s-2.69,6-6.25,6.61v9.13c3.56.6,6.25,3.33,6.25,6.62s-2.69,6-6.25,6.62v8H10.77c.6-3.56,3.33-6.25,6.62-6.25s6,2.69,6.62,6.25h8.36c.22-4,3.15-7.23,6.72-7.23s6.5,3.2,6.72,7.23h8.27c.36-3.88,3.22-6.9,6.7-6.9s6.34,3,6.7,6.9h7c0-.16,0-.33,0-.49,0-4.27,3-7.73,6.74-7.73s6.74,3.46,6.74,7.73c0,.17,0,.33,0,.49h8.6c.36-3.88,3.22-6.9,6.7-6.9s6.34,3,6.7,6.9h9.32c.49-3.72,3.28-6.58,6.67-6.58s6.18,2.85,6.67,6.58h9c.22-4,3.15-7.23,6.72-7.23s6.5,3.2,6.72,7.23h8.25c.22-4,3.15-7.23,6.72-7.23s6.5,3.2,6.72,7.23h8.89v-7.31a8.83,8.83,0,0,1-1.15.08c-4.27,0-7.73-3-7.73-6.74s3.46-6.74,7.73-6.74a8.89,8.89,0,0,1,1.15.07v-9a8.88,8.88,0,0,1-1.15.07c-4.27,0-7.73-3-7.73-6.74s3.46-6.74,7.73-6.74a8.83,8.83,0,0,1,1.15.07V87.84a8.89,8.89,0,0,1-1.15.07c-4.27,0-7.73-3-7.73-6.74s3.46-6.74,7.73-6.74a8.88,8.88,0,0,1,1.15.07v-9a8.94,8.94,0,0,1-1.15.07c-4.27,0-7.73-3-7.73-6.74s3.46-6.74,7.73-6.74a8.94,8.94,0,0,1,1.15.07V44.47c-.27,0-.54,0-.82,0-4.27,0-7.73-3-7.73-6.74S180.47,31,184.74,31c.28,0,.55,0,.82,0v-9c-.27,0-.54,0-.82,0-4.27,0-7.73-3-7.73-6.74s3.46-6.74,7.73-6.74c.28,0,.55,0,.82,0V.13h-8.92C176.29,4,173.42,7,169.94,7s-6.34-3-6.7-6.9h-9C153.93,4,151.07,7,147.58,7s-6.34-3-6.7-6.9h-8C132.56,4,129.69,7,126.21,7s-6.34-3-6.7-6.9h-9C110.2,4,107.34,7,103.86,7s-6.34-3-6.7-6.9H89.52C89.16,4,86.29,7,82.81,7s-6.34-3-6.7-6.9h-9C66.8,4,63.94,7,60.46,7s-6.34-3-6.7-6.9H45.37C44.77,3.68,42,6.37,38.76,6.37Z" fill="none" stroke="#191919" stroke-miterlimit="10" stroke-width="0.25"/><rect x="16.4" y="16.36" width="153.01" height="105.23" fill="#f2f2f2"/><rect x="87.39" y="69.67" width="3.82" height="21.83" fill="#2b323d"/><rect x="95.93" y="69.67" width="3.82" height="21.83" fill="#2b323d"/><rect x="43.34" y="72.77" width="98.93" height="13.32" rx="0.57" ry="0.57" fill="#0d0e0f" stroke="#595959" stroke-miterlimit="10" stroke-width="0.24"/><text transform="translate(46.58 83.46)" font-size="14.38" fill="#fcc57c" font-family="Inversionz, Inversionz" letter-spacing="0.02em">bitsoil</text><text transform="translate(130.84 83.47)" font-size="14.44" fill="#fcc57c" font-family="Inversionz, Inversionz">x</text><rect x="131.97" y="76.32" width="6.65" height="6.64" fill="#0d0e0f"/><text transform="translate(131.17 83.26)" font-size="11.84" fill="#fcc57c" font-family="Qubix, Qubix" letter-spacing="0.02em">X</text><text transform="translate(112.07 83.49)" font-size="14.44" fill="#fcc57c" font-family="Inversionz, Inversionz" letter-spacing="0.02em">t</text><text transform="translate(121.52 83.49)" font-size="14.44" fill="#fcc57c" font-family="Inversionz, Inversionz">a</text><rect x="122.4" y="76.52" width="5.96" height="5.96" fill="#0d0e0f"/><text transform="translate(121.58 83.28)" font-size="11.84" fill="#fcc57c" font-family="Qubix, Qubix" letter-spacing="0.02em">A</text><rect x="47.73" y="76.09" width="6" height="7" fill="#fcc57c"/><rect x="57.73" y="76.09" width="4" height="6" fill="#fcc57c"/><rect x="66.73" y="76.09" width="5" height="6" fill="#fcc57c"/><rect x="75.73" y="76.09" width="6" height="6" fill="#fcc57c"/><rect x="85.73" y="76.09" width="5" height="6" fill="#fcc57c"/><rect x="94.73" y="76.09" width="4" height="6" fill="#fcc57c"/><rect x="103.73" y="77.09" width="6" height="5" fill="#fcc57c"/><rect x="113.73" y="76.09" width="5" height="6" fill="#fcc57c"/><rect x="122.73" y="76.09" width="6" height="6" fill="#fcc57c"/><rect x="131.73" y="76.09" width="6" height="6" fill="#fcc57c"/><path d="M48.37,77.17v4.5h4.5v-4.5ZM52,79H49.72v.9H52v.9h-2.7v-2.7H52Z" fill="#0d0e0f"/><polygon points="135.59 79.42 137.32 81.16 136.79 81.71 135.03 79.98 135.01 79.98 133.27 81.71 132.72 81.18 134.45 79.42 134.45 79.4 132.72 77.64 133.25 77.11 135.01 78.84 135.03 78.84 136.77 77.11 137.32 77.64 135.59 79.4 135.59 79.42" fill="#0d0e0f"/><polygon points="137.32 81.16 136.79 81.71 135.03 79.98 135.01 79.98 133.27 81.71 132.72 81.18 134.45 79.42 134.45 79.4 132.72 77.64 133.25 77.11 135.01 78.84 135.03 78.84 136.77 77.11 137.32 77.64 135.59 79.4 135.59 79.42 137.32 81.16" fill="#0d0e0f"/><path d="M123.91,79.82l0,0v1.88h-.74V77.11h4.61v4.63H127V79.86l0,0Zm0-.77h3l0,0V77.92l0-.05h-3l0,.05V79Z" fill="#0d0e0f"/><polygon points="116.58 78.08 116.58 81.69 115.67 81.69 115.67 78.08 113.87 78.08 113.87 77.18 118.38 77.18 118.38 78.08 116.58 78.08" fill="#0d0e0f"/><polygon points="108.96 80.77 108.96 81.67 104.46 81.67 104.46 77.17 105.36 77.17 105.36 80.77 108.96 80.77" fill="#0d0e0f"/><rect x="96.91" y="77.17" width="0.9" height="4.5" fill="#0d0e0f"/><path d="M89.36,80.77v-2.7h-2.7v2.7Zm.9-3.6v4.5H85.77v-4.5Z" fill="#0d0e0f"/><polygon points="80.91 78.97 80.91 81.67 76.42 81.67 76.42 80.77 80.01 80.77 80.01 79.87 76.42 79.87 76.42 77.17 80.91 77.17 80.91 78.07 77.32 78.07 77.32 78.97 80.91 78.97" fill="#0d0e0f"/><polygon points="69.77 78.07 69.77 81.67 68.87 81.67 68.87 78.07 67.07 78.07 67.07 77.17 71.56 77.17 71.56 78.07 69.77 78.07" fill="#0d0e0f"/><rect x="59.52" y="77.17" width="0.9" height="4.5" fill="#0d0e0f"/><path d="M122.78,59.31V70.12a.26.26,0,0,1-.25.25H64.45a.26.26,0,0,1-.25-.25V59.74C64.2,43.65,77,30.23,93.1,30a29.31,29.31,0,0,1,9.44,1.42l.7.24a29.17,29.17,0,0,1,9.66,5.7c.18.16.37.32.55.5A29.2,29.2,0,0,1,122.78,59.31Z" fill="#e09f36"/><rect x="92.83" y="22.96" width="1.52" height="7.16" fill="#0d0e0f"/><circle cx="112.11" cy="65.73" r="2.07" fill="#f2f2f2"/><path d="M112.11,64a1.76,1.76,0,1,1-1.76,1.76A1.76,1.76,0,0,1,112.11,64m0-.63a2.39,2.39,0,1,0,2.39,2.39,2.39,2.39,0,0,0-2.39-2.39Z" fill="#0d0e0f"/><circle cx="117.64" cy="65.73" r="2.07" fill="#f2f2f2"/><path d="M117.64,64a1.76,1.76,0,1,1-1.76,1.76A1.76,1.76,0,0,1,117.64,64m0-.63A2.39,2.39,0,1,0,120,65.73a2.39,2.39,0,0,0-2.39-2.39Z" fill="#0d0e0f"/><path d="M111.28,52.57a.13.13,0,0,0,.13-.13,17.92,17.92,0,0,0-35.84,0,.13.13,0,0,0,.13.13Z" fill="#0d0e0f"/><rect x="123.95" y="60.84" width="4.18" height="8.36" rx="1.98" ry="1.98" fill="#0d0e0f"/><rect x="58.97" y="60.84" width="4.18" height="8.36" rx="1.98" ry="1.98" transform="translate(122.13 130.03) rotate(180)" fill="#0d0e0f"/><circle cx="87.65" cy="43.82" r="3.58" fill="#f2f2f2"/><circle cx="87.65" cy="43.82" r="2.39" fill="#0d0e0f"/><circle cx="93.57" cy="24.22" r="2.39" fill="#2b323d"/><path d="M98.91,30.54c-.63,0-1.25-.06-1.89-.06A29.29,29.29,0,0,0,67.73,59.77V70.39H64.28a.13.13,0,0,1-.13-.13V59.75C64.16,43.57,77.39,30,93.57,30A29.31,29.31,0,0,1,98.91,30.54Z" fill="#d18f30"/><circle cx="99.65" cy="43.82" r="3.58" fill="#f2f2f2"/><circle cx="99.65" cy="43.82" r="2.39" fill="#0d0e0f"/><rect x="75.34" y="89.25" width="36.99" height="23.63" fill="#f2f2f2" stroke="#0d0e0f" stroke-linecap="round" stroke-linejoin="round" stroke-width="1.28"/><polygon points="112.36 112.88 93.85 98.94 75.37 112.88 112.36 112.88" fill="none" stroke="#0d0e0f" stroke-linecap="round" stroke-linejoin="bevel" stroke-width="1.28"/><polygon points="75.34 89.25 93.85 103.19 112.33 89.25 75.34 89.25" fill="#f2f2f2" stroke="#0d0e0f" stroke-linecap="round" stroke-linejoin="round" stroke-width="1.28"/><rect x="115.56" y="111.46" width="28.35" height="1.89" fill="#0d0e0f"/><rect x="115.62" y="106.79" width="18.9" height="1.89" fill="#0d0e0f"/><rect x="115.58" y="101.95" width="11.81" height="1.89" fill="#0d0e0f"/></svg>