<svg data-name="Layer 1" xmlns="http://www.w3.org/2000/svg" viewBox="0 0 185.15 138.25"><title>bot-stamp</title><path d="M38.65 6.38c-3.27 0-6-2.69-6.6-6.26h-9.1c-.6 3.57-3.32 6.26-6.6 6.26s-6-2.69-6.6-6.26H.12v8c3.71.49 6.56 3.29 6.56 6.68S3.84 21 .12 21.46v9c3.71.49 6.56 3.29 6.56 6.68S3.84 43.37.12 43.85v7.78c3.55.6 6.23 3.34 6.23 6.63s-2.68 6-6.23 6.63V74c3.55.6 6.23 3.34 6.23 6.63s-2.68 6-6.23 6.63v7.17c3.55.6 6.23 3.34 6.23 6.63s-2.68 6-6.23 6.63v9.14c3.55.6 6.23 3.34 6.23 6.63s-2.68 6-6.23 6.63v8h10.62c.6-3.57 3.32-6.26 6.6-6.26s6 2.69 6.6 6.26h8.34c.22-4 3.14-7.25 6.71-7.25s6.48 3.2 6.71 7.25h8.25c.36-3.89 3.21-6.92 6.68-6.92s6.33 3 6.68 6.92h6.94v-.49c0-4.27 3-7.74 6.72-7.74s6.72 3.47 6.72 7.74v.49h8.58c.36-3.89 3.21-6.92 6.68-6.92s6.33 3 6.68 6.92h9.29c.48-3.73 3.27-6.59 6.65-6.59s6.16 2.86 6.65 6.59h8.94c.22-4 3.14-7.25 6.71-7.25s6.48 3.2 6.71 7.25h8.23c.22-4 3.14-7.25 6.71-7.25s6.48 3.2 6.71 7.25H185v-7.29a8.76 8.76 0 0 1-1.15.08c-4.25 0-7.7-3-7.7-6.75s3.45-6.75 7.7-6.75a8.82 8.82 0 0 1 1.15.07v-9a8.82 8.82 0 0 1-1.15.07c-4.25 0-7.7-3-7.7-6.75s3.45-6.75 7.7-6.75a8.76 8.76 0 0 1 1.15.07V88a8.82 8.82 0 0 1-1.15.07c-4.25 0-7.7-3-7.7-6.75s3.45-6.75 7.7-6.75a8.82 8.82 0 0 1 1.15.07v-9a8.88 8.88 0 0 1-1.15.07c-4.25 0-7.7-3-7.7-6.75s3.45-6.75 7.7-6.75a8.88 8.88 0 0 1 1.15.07v-7.73h-.82c-4.25 0-7.7-3-7.7-6.75s3.45-6.75 7.7-6.75h.82v-9h-.82c-4.25 0-7.7-3-7.7-6.75s3.45-6.75 7.7-6.75h.82V.12h-8.89C175.78 4 172.93 7 169.46 7s-6.33-3-6.68-6.92h-8.93C153.49 4 150.63 7 147.16 7s-6.33-3-6.68-6.92h-7.94C132.18 4 129.32 7 125.85 7s-6.33-3-6.68-6.92h-8.93C109.89 4 107 7 103.56 7S97.23 4 96.88.12h-7.62C88.9 4 86 7 82.58 7S76.25 4 75.9.12H67C66.61 4 63.75 7 60.28 7S54 4 53.6.12h-8.36c-.6 3.57-3.32 6.26-6.59 6.26z" fill="#d3d3d3"/><path d="M38.65 6.38c-3.27 0-6-2.69-6.6-6.26h-9.1c-.6 3.57-3.32 6.26-6.6 6.26s-6-2.69-6.6-6.26H.12v8c3.71.49 6.56 3.29 6.56 6.68S3.84 21 .12 21.46v9c3.71.49 6.56 3.29 6.56 6.68S3.84 43.37.12 43.85v7.78c3.55.6 6.23 3.34 6.23 6.63s-2.68 6-6.23 6.63V74c3.55.6 6.23 3.34 6.23 6.63s-2.68 6-6.23 6.63v7.17c3.55.6 6.23 3.34 6.23 6.63s-2.68 6-6.23 6.63v9.14c3.55.6 6.23 3.34 6.23 6.63s-2.68 6-6.23 6.63v8h10.62c.6-3.57 3.32-6.26 6.6-6.26s6 2.69 6.6 6.26h8.34c.22-4 3.14-7.25 6.71-7.25s6.48 3.2 6.71 7.25h8.25c.36-3.89 3.21-6.92 6.68-6.92s6.33 3 6.68 6.92h6.94v-.49c0-4.27 3-7.74 6.72-7.74s6.72 3.47 6.72 7.74v.49h8.58c.36-3.89 3.21-6.92 6.68-6.92s6.33 3 6.68 6.92h9.29c.48-3.73 3.27-6.59 6.65-6.59s6.16 2.86 6.65 6.59h8.94c.22-4 3.14-7.25 6.71-7.25s6.48 3.2 6.71 7.25h8.23c.22-4 3.14-7.25 6.71-7.25s6.48 3.2 6.71 7.25H185v-7.29a8.76 8.76 0 0 1-1.15.08c-4.25 0-7.7-3-7.7-6.75s3.45-6.75 7.7-6.75a8.82 8.82 0 0 1 1.15.07v-9a8.82 8.82 0 0 1-1.15.07c-4.25 0-7.7-3-7.7-6.75s3.45-6.75 7.7-6.75a8.76 8.76 0 0 1 1.15.07V88a8.82 8.82 0 0 1-1.15.07c-4.25 0-7.7-3-7.7-6.75s3.45-6.75 7.7-6.75a8.82 8.82 0 0 1 1.15.07v-9a8.88 8.88 0 0 1-1.15.07c-4.25 0-7.7-3-7.7-6.75s3.45-6.75 7.7-6.75a8.88 8.88 0 0 1 1.15.07v-7.73h-.82c-4.25 0-7.7-3-7.7-6.75s3.45-6.75 7.7-6.75h.82v-9h-.82c-4.25 0-7.7-3-7.7-6.75s3.45-6.75 7.7-6.75h.82V.12h-8.89C175.78 4 172.93 7 169.46 7s-6.33-3-6.68-6.92h-8.93C153.49 4 150.63 7 147.16 7s-6.33-3-6.68-6.92h-7.94C132.18 4 129.32 7 125.85 7s-6.33-3-6.68-6.92h-8.93C109.89 4 107 7 103.56 7S97.23 4 96.88.12h-7.62C88.9 4 86 7 82.58 7S76.25 4 75.9.12H67C66.61 4 63.75 7 60.28 7S54 4 53.6.12h-8.36c-.6 3.57-3.32 6.26-6.59 6.26z" fill="none" stroke="#191919" stroke-miterlimit="10" stroke-width=".25"/><path fill="#f2f2f2" d="M15.03 14.99h153v107h-153z"/><path fill="#2b323d" d="M87.18 67.79H91v21.83h-3.82zM95.03 67.79h4v21.83h-4z"/><rect x="46.03" y="70.99" width="94" height="13" rx=".05" ry=".05" fill="#0d0e0f"/><text transform="translate(46.36 81.58)" font-size="14.38" fill="#fcc57c" font-family="Inversionz, Inversionz" letter-spacing=".02em">bitsoil</text><text transform="translate(130.62 81.59)" font-size="14.44" fill="#fcc57c" font-family="Inversionz, Inversionz">x</text><path fill="#0d0e0f" d="M131.76 74.44h6.65v6.64h-6.65z"/><text transform="translate(130.95 81.38)" font-size="11.84" fill="#fcc57c" font-family="Qubix, Qubix" letter-spacing=".02em">X</text><text transform="translate(111.85 81.61)" font-size="14.44" fill="#fcc57c" font-family="Inversionz, Inversionz" letter-spacing=".03em">t</text><text transform="translate(121.3 81.61)" font-size="14.44" fill="#fcc57c" font-family="Inversionz, Inversionz">a</text><path fill="#0d0e0f" d="M122.18 74.64h5.96v5.96h-5.96z"/><text transform="translate(121.36 81.4)" font-size="11.84" fill="#fcc57c" font-family="Qubix, Qubix" letter-spacing=".02em">A</text><path fill="#fcc57c" d="M47.52 74.21h6v7h-6zM57.52 74.21h4v6h-4zM66.52 74.21h5v6h-5zM75.52 74.21h6v6h-6zM85.52 74.21h5v6h-5zM94.52 74.21h4v6h-4zM103.52 75.21h6v5h-6zM113.52 74.21h5v6h-5zM122.52 74.21h6v6h-6zM131.52 74.21h6v6h-6z"/><path d="M48.16 75.29v4.5h4.5v-4.5zm3.6 1.8h-2.25V78h2.25v.9h-2.7v-2.7h2.7zM135.38 77.54l1.73 1.74-.53.55-1.76-1.73h-.02l-1.74 1.73-.55-.53 1.73-1.76v-.02l-1.73-1.76.53-.53 1.76 1.73h.02l1.74-1.73.55.53-1.73 1.76v.02z" fill="#0d0e0f"/><path fill="#0d0e0f" d="M132.51 79.29l1.73-1.76v-.02l-1.73-1.76.53-.53 1.76 1.73h.02l1.74-1.73.55.53-1.73 1.76v.02l1.73 1.74-.53.55-1.76-1.73h-.02l-1.74 1.73-.55-.53zM123.7 76V77.14h3v-1.19zm-.79 3.87v-4.65h4.61v4.63h-.77V78h-3v1.88zM116.37 76.19v3.61h-.91v-3.61h-1.8v-.9h4.51v.9h-1.8zM108.75 79.78h-4.5v-4.5h.9v3.6h3.6v.9zM96.7 75.28h.9v4.5h-.9zM89.15 78.88v-2.7h-2.7v2.7zm.9-3.6v4.5h-4.49v-4.5zM79.8 77.98h-3.59v-2.7h4.49v.9h-3.59v.9h3.59v2.7h-4.49v-.9h3.59v-.9zM69.56 76.18v3.6h-.9v-3.6h-1.8v-.9h4.49v.9h-1.79zM59.31 75.28h.9v4.5h-.9z"/><path d="M122 57.07v10.67a.25.25 0 0 1-.25.25H64.28a.25.25 0 0 1-.25-.25V57.5a29 29 0 0 1 38-28l.69.23a28.89 28.89 0 0 1 9.56 5.63c.18.16.36.32.54.49A28.81 28.81 0 0 1 122 57.07z" fill="#e09f36"/><path fill="#0d0e0f" d="M92.03 21.08h2v7.16h-2z"/><circle cx="111.89" cy="63.85" r="2.07" fill="#f2f2f2"/><path d="M111.89 62.1a1.76 1.76 0 1 1-1.76 1.76 1.76 1.76 0 0 1 1.76-1.76m0-.63a2.39 2.39 0 1 0 2.39 2.39 2.39 2.39 0 0 0-2.39-2.39z" fill="#0d0e0f"/><circle cx="117.42" cy="63.85" r="2.07" fill="#f2f2f2"/><path d="M117.42 62.1a1.76 1.76 0 1 1-1.76 1.76 1.76 1.76 0 0 1 1.76-1.76m0-.63a2.39 2.39 0 1 0 2.39 2.39 2.39 2.39 0 0 0-2.39-2.39zM111.06 50.69a.13.13 0 0 0 .13-.13 17.92 17.92 0 0 0-35.84 0 .13.13 0 0 0 .13.13z" fill="#0d0e0f"/><rect x="123.43" y="58.95" width="4.18" height="8.36" rx="1.98" ry="1.98" fill="#0d0e0f"/><rect x="58.45" y="58.95" width="4.18" height="8.36" rx="1.98" ry="1.98" transform="rotate(180 60.54 63.135)" fill="#0d0e0f"/><circle cx="87.43" cy="41.94" r="3.58" fill="#f2f2f2"/><circle cx="87.43" cy="41.94" r="2.39" fill="#0d0e0f"/><circle cx="93.03" cy="22.34" r="2.39" fill="#2b323d"/><path d="M98.7 28.66c-.62 0-1.25-.06-1.88-.06A29.07 29.07 0 0 0 67.6 57.51V68h-3.44a.13.13 0 0 1-.13-.13V57.49A29.26 29.26 0 0 1 98.7 28.66z" fill="#d18f30"/><circle cx="99.43" cy="41.94" r="3.58" fill="#f2f2f2"/><circle cx="99.43" cy="41.94" r="2.39" fill="#0d0e0f"/><path fill="none" stroke="#0d0e0f" stroke-linecap="round" stroke-linejoin="bevel" stroke-width="1.32" d="M112.15 111L92.57 97.06 73.03 111"/><path fill="#f2f2f2" stroke="#0d0e0f" stroke-linecap="round" stroke-linejoin="round" stroke-width="1.29" d="M73.03 88l19.56 13.31L112.11 88"/><path fill="#0d0e0f" d="M72.03 86.99h41v1.25h-41zM72.03 110.87h41V112h-41z"/><path fill="#0d0e0f" d="M111.9 86.99h1.13v25h-1.13zM72.03 86.99h1.13v25h-1.13zM115.03 109.99h29v2h-29zM115.03 104.99h20v1.8h-20zM115.03 100.07h13v1.89h-13z"/><rect x="46.03" y="70.99" width="95" height="13" rx=".05" ry=".05" fill="#0d0e0f"/><path fill="#fcc57c" d="M130.03 73.99h7v7h-7z"/><path fill="#0d0e0f" d="M131.03 74.99h2v1h-2zM133.03 76.99h1v1h-1zM134.03 78.99h2v1h-2zM131.03 78.99h2v1h-2z"/><path fill="#0d0e0f" d="M133.03 76.99h1v1h-1zM134.03 74.99h2v1h-2zM132.03 75.99h3v1h-3zM132.03 77.99h3v1h-3z"/><path fill="#fcc57c" d="M49.03 73.99h7v7h-7zM58.03 73.99h7v7h-7zM67.03 73.99h7v7h-7zM76.03 73.99h7v7h-7zM85.03 73.99h7v7h-7zM94.03 73.99h7v7h-7zM103.03 73.99h7v7h-7zM112.03 73.99h7v7h-7zM121.03 73.99h7v7h-7z"/><path fill="#0d0e0f" d="M50.03 74.99h1v5h-1zM54.03 74.99h1v5h-1z"/><path fill="#0d0e0f" d="M50.03 74.99h5v1h-5zM50.03 78.99h5v1h-5zM52.03 76.99h3v1h-3zM61.03 74.99h1v5h-1zM68.03 74.99h5v1h-5zM70.03 75.99h1v4h-1zM113.03 74.99h5v1h-5zM115.03 75.99h1v4h-1zM77.03 74.99h5v1h-5z"/><path fill="#0d0e0f" d="M77.03 74.99h1v3h-1z"/><path fill="#0d0e0f" d="M77.03 76.99h5v1h-5zM77.03 78.99h5v1h-5z"/><path fill="#0d0e0f" d="M81.03 76.99h1v3h-1zM122.03 74.99h5v1h-5zM122.03 76.99h5v1h-5z"/><path fill="#0d0e0f" d="M126.03 74.99h1v5h-1zM122.03 74.99h1v5h-1zM86.03 74.99h5v1h-5zM86.03 78.99h5v1h-5z"/><path fill="#0d0e0f" d="M86.03 74.99h1v5h-1zM90.03 74.99h1v5h-1zM97.03 74.99h1v5h-1zM104.03 74.99h1v5h-1z"/><path fill="#0d0e0f" d="M104.03 78.99h5v1h-5z"/></svg>