<svg id="Layer_1" data-name="Layer 1" xmlns="http://www.w3.org/2000/svg" viewBox="0 0 338.2 69.1"><title>logo</title><rect x="256.88" y="13.2" width="17.34" height="17.34" fill="#fff"/><rect x="32.34" y="43.79" width="21" height="21" fill="#fff"/><rect x="60.34" y="43.79" width="19" height="19" fill="#fff"/><rect x="89.34" y="43.79" width="18" height="18" fill="#fff"/><rect x="119.34" y="43.79" width="18" height="18" fill="#fff"/><rect x="146.34" y="43.79" width="19" height="19" fill="#fff"/><rect x="177.34" y="43.79" width="12" height="18" fill="#fff"/><rect x="201.34" y="43.79" width="20" height="20" fill="#fff"/><text transform="translate(28.77 66.23)" font-size="45.81" fill="#342e30" font-family="Inversionz, Inversionz">b1ts<tspan x="114.52" y="0" fill="#de9d36" font-size="45.79">0</tspan><tspan x="143.14" y="0">1l</tspan><tspan x="200.41" y="0" fill="#010000"> </tspan></text><text transform="translate(253.12 35.45)" font-size="45.38" fill="#de9d36" font-family="Inversionz, Inversionz">tax</text><rect x="284.12" y="11.79" width="19.69" height="20.2" fill="#fff"/><rect x="313.4" y="11.79" width="16.03" height="20.2" fill="#fff"/><text transform="translate(282.31 35.11)" font-size="37.22" fill="#de9d36" font-family="Qubix, Qubix" letter-spacing="0.05em">AX</text><path d="M311.14,36.26l-19,12.38h0l-16.68,6.69L265,59.51H252.54V43.67h3.92l7.76-7.15h21v1.19c0,3.29-8.36,6.1-11.66,6.1L287.63,43l14.28-9.29c2.76-1.79,7.44-.23,9.23,2.52Z" fill="#f2c7a0" stroke="#c76c47" stroke-miterlimit="10" stroke-width="1.9"/><rect x="233.63" y="41.2" width="19.14" height="21.36" fill="#fff"/><path d="M252.19,41.78V62h-18V41.78h18m1.15-1.15H233.06V63.14h20.29V40.62Z"/><rect x="229.12" y="40.61" width="19.77" height="25.28" fill="#342e30"/><text transform="translate(0 66.16)" font-size="45.81" fill="#342e30" font-family="Inversionz, Inversionz">#</text><rect x="3.34" y="43.48" width="20" height="21" fill="#342e30"/><text transform="translate(6.34 60.46) scale(1.06 1)" font-size="21" fill="#fff" font-family="Roboto-Bold, Roboto" font-weight="700" letter-spacing="-0.08em">#</text></svg>