<svg data-name="Layer 1" xmlns="http://www.w3.org/2000/svg" viewBox="0 0 27 27"><title>Artboard 1</title><path d="M19.55 0H7.45A7.46 7.46 0 0 0 0 7.45v12.1A7.46 7.46 0 0 0 7.45 27h12.1A7.46 7.46 0 0 0 27 19.55V7.45A7.46 7.46 0 0 0 19.55 0m5.05 19.55a5.06 5.06 0 0 1-5.05 5.05H7.45a5.06 5.06 0 0 1-5.05-5.05V7.45A5.06 5.06 0 0 1 7.45 2.4h12.1a5.06 5.06 0 0 1 5.05 5.05z" fill="#878787"/><path d="M13 6.54a7 7 0 1 0 7 7 7 7 0 0 0-7-7m0 11.52a4.56 4.56 0 1 1 4.56-4.56A4.57 4.57 0 0 1 13 18.06M20.25 4.51A1.76 1.76 0 1 0 21.5 5a1.76 1.76 0 0 0-1.24-.51" fill="#878787"/></svg>