<svg width="20px" height="20px" xmlns="http://www.w3.org/2000/svg" viewBox="0 0 19.71 19.71"><title>Instagram</title><g data-name="icon-instagram"><path d="M14.27 0H5.44A5.45 5.45 0 0 0 0 5.44v8.83a5.44 5.44 0 0 0 5.44 5.44h8.83a5.45 5.45 0 0 0 5.44-5.44V5.44A5.45 5.45 0 0 0 14.27 0M18 14.27A3.69 3.69 0 0 1 14.27 18H5.44a3.69 3.69 0 0 1-3.69-3.69V5.44a3.69 3.69 0 0 1 3.69-3.69h8.83A3.69 3.69 0 0 1 18 5.44z"/><path d="M9.49 4.78a5.08 5.08 0 1 0 5.08 5.08 5.08 5.08 0 0 0-5.08-5.08m0 8.41a3.33 3.33 0 1 1 3.33-3.33 3.33 3.33 0 0 1-3.33 3.33m5.3-9.9a1.28 1.28 0 1 0 .91.38 1.29 1.29 0 0 0-.91-.38"/></g></svg>
