<svg width="31" height="21" xmlns="http://www.w3.org/2000/svg" viewBox="0 0 30.67 20.12"><title>Mail Us</title><g data-name="icon-mail"><path d="M29.9 20.12H.75L0 19.37V.75L.75 0H29.9l.75.75v18.62zm-28.4-1.5h27.65V1.5H1.5z"/><path d="M29.92 20.12H.78a.75.75 0 0 1-.45-1.35l12.12-9.14a.75.75 0 0 1 .9 1.2L3 18.62h24.68l-10.35-7.79a.75.75 0 0 1 .9-1.2l12.14 9.14a.75.75 0 0 1-.45 1.35z"/><path d="M15.34 12.48a.75.75 0 0 1-.45-.15L.3 1.35A.75.75 0 0 1 .75 0H29.9a.75.75 0 0 1 .45 1.35l-14.56 11a.75.75 0 0 1-.45.13zM3 1.5l12.34 9.29L27.66 1.5z"/></g></svg>