<svg width="25px" height="20px" xmlns="http://www.w3.org/2000/svg" viewBox="0 0 24.25 19.71"><title>Asset 1</title><path d="M24.25 2.33a10 10 0 0 1-2.86.78A5 5 0 0 0 23.58.36a10 10 0 0 1-3.16 1.21 5 5 0 0 0-8.48 4.54A14.13 14.13 0 0 1 1.69.91a5 5 0 0 0 1.54 6.64A5 5 0 0 1 1 6.93V7a5 5 0 0 0 4 4.88 5 5 0 0 1-2.28.12 5 5 0 0 0 4.65 3.46 10 10 0 0 1-6.18 2.13A10.07 10.07 0 0 1 0 17.47a14.08 14.08 0 0 0 7.63 2.24A14.06 14.06 0 0 0 21.78 5.55v-.64a10.11 10.11 0 0 0 2.48-2.58" data-name="icon-twitter"/></svg>
