<svg data-name="Layer 1" xmlns="http://www.w3.org/2000/svg" viewBox="0 0 33.22 27"><title>Artboard 1</title><path d="M33.22 3.2a13.63 13.63 0 0 1-3.91 1.07A6.84 6.84 0 0 0 32.3.5 13.64 13.64 0 0 1 28 2.15a6.82 6.82 0 0 0-11.64 6.22 19.35 19.35 0 0 1-14-7.12 6.82 6.82 0 0 0 2.11 9.1 6.79 6.79 0 0 1-3.09-.85v.09a6.82 6.82 0 0 0 5.42 6.67 6.83 6.83 0 0 1-3.08.12 6.82 6.82 0 0 0 6.37 4.73A13.67 13.67 0 0 1 1.63 24 13.8 13.8 0 0 1 0 23.93 19.29 19.29 0 0 0 10.45 27C23 27 29.84 16.61 29.84 7.61v-.88a13.85 13.85 0 0 0 3.4-3.53" fill="#878787"/></svg>