<?xml version="1.0" standalone="no"?>
<!DOCTYPE svg PUBLIC "-//W3C//DTD SVG 20010904//EN"
 "http://www.w3.org/TR/2001/REC-SVG-20010904/DTD/svg10.dtd">
<svg version="1.0" xmlns="http://www.w3.org/2000/svg"
 width="700.000000pt" height="700.000000pt" viewBox="0 0 700.000000 700.000000"
 preserveAspectRatio="xMidYMid meet">
<metadata>
Created by potrace 1.11, written by Peter Selinger 2001-2013
</metadata>
<g transform="translate(0.000000,700.000000) scale(0.100000,-0.100000)"
fill="#000000" stroke="none">
<path d="M2407 6344 c-4 -4 -7 -202 -7 -441 l0 -433 -435 0 -435 0 0 -1535 0
-1535 1533 2 1532 3 3 658 2 657 -875 0 -875 0 0 215 0 215 873 2 872 3 0 220
0 220 -1095 0 -1095 0 -3 -657 -2 -658 875 0 875 0 0 -215 0 -215 -1090 0
-1090 0 0 1090 0 1090 1530 0 1530 0 0 -1530 0 -1530 -1750 0 -1750 0 0 -220
0 -220 435 0 435 0 2 -437 3 -438 220 0 220 0 3 438 2 437 650 0 650 0 2 -437
3 -438 220 0 220 0 3 438 2 437 435 0 435 0 0 1970 0 1970 -435 0 -435 0 -2
438 -3 437 -220 0 -220 0 -3 -437 -2 -438 -650 0 -650 0 -2 438 -3 437 -216 3
c-118 1 -218 -1 -222 -4z"/>
</g>
</svg>
