<svg width="126px" height="32px" data-name="icon-fundamental-research" xmlns="http://www.w3.org/2000/svg" viewBox="0 0 126 32"><title>Fundamental Research</title><path d="M.15 14.11h1.23v-7h5.27V6H1.38V1.72h5.47V.57H.15zM9.58.57V9c0 3.66 1.61 5.45 4.92 5.45s4.92-1.8 4.92-5.45V.57h-1.27v8.84c0 2.65-1.19 4-3.69 4s-3.71-1.31-3.71-4V.57zm13.17 13.54h1.16V3.16l9.58 11.35V.57h-1.16v10.76L22.75 0zm14.11 0h2.67c2.18 0 3.94-.06 5.49-1.25a6.68 6.68 0 0 0 2.28-5.51c0-2.71-1-4.81-2.78-5.89C43.08.57 41.28.57 39 .57h-2.1zM38.08 13V1.59h1.46c2.27 0 3.83 0 5.08 1.42A6.32 6.32 0 0 1 46 7.33a6 6 0 0 1-2 4.94c-1 .74-2.35.78-4 .78h-1.92zm9.75 1.06h1.25l1.8-4.58h5.53l1.73 4.63h1.34L53.78 0l-6 14.11zm3.47-5.64l2.41-5.89L56 8.42zm15.84 6.22L72 3.77l1 10.34h1.27L72.53 0l-5.38 12L62 0l-1.85 14.11h1.27l1-10.34zm9.66-.53h6.7V13h-5.44V7.12h5.47V6h-5.47V1.72h5.47V.57h-6.7v13.54zm9.72 0h1.16v-11l9.58 11.35V.57h-1.11v10.76L86.55 0v14.11zm16.52 0h1.23V1.72H108V.57h-8.66v1.15h3.73v12.39zm3.75 0H108l1.8-4.58h5.53l1.77 4.58h1.34L112.77 0l-5.95 14.07zm3.47-5.64l2.41-5.89L115 8.47zm9.7 5.64h5.87V13h-4.63V.57H120zM50 31.64l-4.87-6.46a3.19 3.19 0 0 0 3.52-3.39c0-2.48-1.46-3.69-4.39-3.69H41.8v13.54H43v-6.46h.74l4.75 6.46zm-7-12.46h1.23c2.16 0 3.09.63 3.09 2.58s-1 2.42-3.09 2.42H43v-5zm8.73 12.46h6.7v-1.15H53v-5.84h5.47V23.5H53v-4.25h5.47V18.1h-6.7v13.54zm8.63-2.27A3.84 3.84 0 0 0 64.15 32a3.68 3.68 0 0 0 4-4c0-2-.91-2.92-2.9-4-1.76-1-3-1.35-3-3a2 2 0 0 1 2.18-2.18A2.21 2.21 0 0 1 66.55 20l.95-.57a3.19 3.19 0 0 0-3-1.72A3.23 3.23 0 0 0 61 21c0 1.89 1.25 2.77 3.39 3.88 1.59.83 2.58 1.46 2.58 3.13a2.56 2.56 0 0 1-2.73 2.86 2.75 2.75 0 0 1-2.77-2.1l-1.06.57zm10.43 2.27h6.7v-1.15H72v-5.84h5.47V23.5H72v-4.25h5.47V18.1h-6.7v13.54zm7.82 0h1.25l1.8-4.58h5.53l1.72 4.58h1.34l-5.7-14.07-5.91 14.07zM82.15 26l2.41-5.89L86.81 26zM100 31.64l-4.87-6.46a3.19 3.19 0 0 0 3.52-3.39c0-2.48-1.46-3.69-4.39-3.69h-2.52v13.54H93v-6.46h.74l4.75 6.46zm-7-12.46h1.23c2.16 0 3.09.63 3.09 2.58s-1 2.42-3.09 2.42H93v-5zm19.58 1.4v-1.36a7.23 7.23 0 0 0-11.53 5.66 6.84 6.84 0 0 0 6.56 7.12h.53a8.26 8.26 0 0 0 4.3-1.27v-1.44a7 7 0 0 1-4.3 1.57 5.63 5.63 0 0 1-5.75-5.51v-.49a5.68 5.68 0 0 1 5.35-6h.56a6.3 6.3 0 0 1 4.26 1.7zm2.65 11.06h1.23v-7h7.37v7h1.23V18.1h-1.23v5.49h-7.37V18.1h-1.23zM33.547 16.082l1.918-1.603 5.547 6.637-1.918 1.603z"/></svg>
