<svg data-name="Layer 1" xmlns="http://www.w3.org/2000/svg" viewBox="0 0 61.1 60"><title>Artboard 1</title><path d="M2.75 55.87a2.11 2.11 0 1 0 1.39 2.65 2.13 2.13 0 0 0-1.39-2.65zm-.08 2.19a.59.59 0 1 1-.38-.72.57.57 0 0 1 .38.72zm15.79-16.14a2 2 0 0 0-1.52-.66 2.06 2.06 0 0 0-.85.17 2 2 0 0 0-.67.48 2.2 2.2 0 0 0-.44.73 2.72 2.72 0 0 0-.16.94 2.64 2.64 0 0 0 .16.95 2.24 2.24 0 0 0 .44.74 2 2 0 0 0 .67.48 2.09 2.09 0 0 0 .85.17 2.14 2.14 0 0 0 .85-.17 2 2 0 0 0 .66-.47 2.23 2.23 0 0 0 .44-.73 2.75 2.75 0 0 0 .16-.95 2.71 2.71 0 0 0-.16-.94 2.29 2.29 0 0 0-.43-.74zm4.19-.53h-1.22v2h1.26a1.42 1.42 0 0 0 1-.28 1 1 0 0 0 .3-.74c.01-.65-.46-.98-1.34-.98zm37.47-25a1.37 1.37 0 0 0-1.7.93v.07l-17.33-1.51.27-3.18a1.37 1.37 0 0 0 .31-2.7 1.37 1.37 0 0 0-.77 2.63h.1l-.26 3.11-2.83-1.66.84-9.9a2.11 2.11 0 0 0 .58-4.09 2.11 2.11 0 1 0-1.25 4l.25.05-.82 9.71L33 11.23c-1.51-.88-2.69-.41-4.37 0L11.14 15.8l-4.85 1.26A3.19 3.19 0 0 0 4 20.93l7.84 30.49a3.19 3.19 0 0 0 2.75 2.34 3.12 3.12 0 0 0 1.12-.07l4.19-1.09 26.75-7a3.12 3.12 0 0 0 1.17-.59 3.18 3.18 0 0 0 1.11-3.28l-.48-1.88h-7.06a.79.79 0 0 1-.57-.22.73.73 0 0 1-.24-.55v-9.3a.6.6 0 0 1 .65-.66h.15a.61.61 0 0 1 .67.66v8.78h6.06L43.89 22a2.14 2.14 0 1 0-1-3.62 4.69 4.69 0 0 0-1.39-2.12l16.85 1.42A1.37 1.37 0 0 0 61 18a1.38 1.38 0 0 0-.89-1.66zm-22-14.4a.58.58 0 0 1 .74-.38.57.57 0 0 1 .38.73.58.58 0 0 1-.73.39.59.59 0 0 1-.38-.79zm-23.3 26.64a.78.78 0 0 1 .87.86.8.8 0 0 1-.91.86.78.78 0 0 1-.87-.86.8.8 0 0 1 .91-.86zm.69 3.89v6.78a.62.62 0 0 1-.2.52.73.73 0 0 1-.46.14h-.12a.72.72 0 0 1-.45-.14.62.62 0 0 1-.2-.52v-6.78a.63.63 0 0 1 .2-.52.72.72 0 0 1 .46-.14h.12a.72.72 0 0 1 .46.14.63.63 0 0 1 .19.52zM13.83 46.1a.45.45 0 0 1-.5.5h-.09a.45.45 0 0 1-.5-.5V46a.51.51 0 0 1 .13-.37.49.49 0 0 1 .36-.14h.09a.5.5 0 0 1 .37.14.51.51 0 0 1 .13.37zm5.86-1.28a2.82 2.82 0 0 1-.61 1 2.77 2.77 0 0 1-.94.63 3.16 3.16 0 0 1-1.19.22 3.11 3.11 0 0 1-1.19-.22 2.75 2.75 0 0 1-.93-.63 2.81 2.81 0 0 1-.6-1 3.62 3.62 0 0 1 0-2.47 2.94 2.94 0 0 1 .61-1 2.76 2.76 0 0 1 .93-.64 3.23 3.23 0 0 1 2.38 0 2.77 2.77 0 0 1 .93.63 2.81 2.81 0 0 1 .6 1 3.66 3.66 0 0 1 0 2.47zm5 1.29a.15.15 0 0 1 0 .18.46.46 0 0 1-.09.12l-.14.11a.43.43 0 0 1-.22.05.57.57 0 0 1-.23-.05.7.7 0 0 1-.23-.2L22 44.15h-.55v2a.39.39 0 0 1-.09.26.35.35 0 0 1-.28.12H21a.34.34 0 0 1-.36-.38v-5.08a.43.43 0 0 1 .13-.32.44.44 0 0 1 .31-.13h1.57a2.56 2.56 0 0 1 1.59.43 1.59 1.59 0 0 1 .57 1.32 1.64 1.64 0 0 1-.52 1.29 2.14 2.14 0 0 1-1.26.44zm6.07.3c0 .06 0 .11-.12.14a.41.41 0 0 1-.18 0 .42.42 0 0 1-.33-.14.86.86 0 0 1-.13-.51 2 2 0 0 1-.63.53 2.77 2.77 0 0 1-1.26.27 2.86 2.86 0 0 1-1.11-.28 2.57 2.57 0 0 1-.88-.64 2.9 2.9 0 0 1-.56-1 3.68 3.68 0 0 1-.2-1.21 3.39 3.39 0 0 1 .22-1.24 2.94 2.94 0 0 1 .61-1 2.77 2.77 0 0 1 .94-.64 3.31 3.31 0 0 1 2.14-.09 2.78 2.78 0 0 1 .69.32 1.62 1.62 0 0 1 .44.4.67.67 0 0 1 .16.38.43.43 0 0 1-.23.4.38.38 0 0 1-.17.05.18.18 0 0 1-.15 0 1.46 1.46 0 0 0-.31-.38 1.9 1.9 0 0 0-.41-.28 2.14 2.14 0 0 0-.47-.17 2 2 0 0 0-.49-.06 2.14 2.14 0 0 0-.86.17 1.87 1.87 0 0 0-.66.47 2.22 2.22 0 0 0-.43.74 2.77 2.77 0 0 0-.16.95 3.13 3.13 0 0 0 .14.95 2.12 2.12 0 0 0 .4.73 1.91 1.91 0 0 0 .64.48 2 2 0 0 0 .86.18 2.28 2.28 0 0 0 .68-.1 1.79 1.79 0 0 0 .55-.28 1.59 1.59 0 0 0 .39-.44 1.42 1.42 0 0 0 .19-.55v-.37h-1.5c-.39 0-.43-.25-.43-.35 0-.11 0-.36.43-.36h1.69a.54.54 0 0 1 .55.55zM28 39.3a.6.6 0 0 1-.66.66h-.13a.59.59 0 0 1-.64-.66v-8L24 36.53a1.71 1.71 0 0 1-.4.56 1.1 1.1 0 0 1-.74.22 1.08 1.08 0 0 1-.75-.23 1.77 1.77 0 0 1-.39-.55l-2.54-5.28v8a.59.59 0 0 1-.64.66h-.17a.59.59 0 0 1-.62-.66V30a.78.78 0 0 1 .29-.62 1.06 1.06 0 0 1 .71-.23H19a1 1 0 0 1 .75.25 2.45 2.45 0 0 1 .4.66l2.72 5.74 2.72-5.8a2.48 2.48 0 0 1 .4-.66 1 1 0 0 1 .75-.25H27a1.07 1.07 0 0 1 .71.23.78.78 0 0 1 .29.68zm11 .51a1.08 1.08 0 0 1-.57.15 1 1 0 0 1-.47-.13.9.9 0 0 1-.38-.48l-1.14-2.85H32l-1.14 2.85a.92.92 0 0 1-.36.47.88.88 0 0 1-.5.18 1.06 1.06 0 0 1-.55-.15c-.09-.06-.34-.21-.24-.4l4-9.83a.75.75 0 0 1 .35-.39 2 2 0 0 1 1.34 0 .75.75 0 0 1 .35.39l4 9.81c.13.17-.11.32-.25.38zm1.87-28.58a.39.39 0 0 1 .48-.26.37.37 0 0 1 .25.47.38.38 0 0 1-.73-.21zm2.92 8.48a.59.59 0 1 1 .28.79.6.6 0 0 1-.23-.78zm16.26-1.95a.37.37 0 0 1-.47.25.38.38 0 0 1-.26-.47.38.38 0 0 1 .47-.26.39.39 0 0 1 .3.49zM32.52 35.22H36l-1.72-4.29z" fill="#787878"/><path d="M11.86 51.42L4 20.93a3.19 3.19 0 0 1 1.19-3.35 3.11 3.11 0 0 1 1.08-.52l4.81-1.25-4.75 1.04a3.18 3.18 0 0 0-2.42 3.78l6.66 30.77a3.19 3.19 0 0 0 3.78 2.42l.27-.06a3.19 3.19 0 0 1-2.76-2.34zm8.06 1.18L45.58 47a3.18 3.18 0 0 0 2.26-1.92 3.12 3.12 0 0 1-1.17.59zm12-15.86l-1.18 2.84a1.18 1.18 0 0 1-.07.12 1.08 1.08 0 0 0 .21-.34zm9.33-7.27h.15a.61.61 0 0 1 .66.67l-.12 8.78L48 39l-.11-.45h-5.83v-8.77a.61.61 0 0 0-.67-.66h-.15a.6.6 0 0 0-.65.66V30a.58.58 0 0 1 .64-.52zm-8.8 6h3.45l-.11-.29h-3.26zm1.16-6a2 2 0 0 1 1.33 0 .74.74 0 0 1 .34.39l3.87 9.86s.22-.2.14-.35l-4-9.81a.75.75 0 0 0-.35-.39 2 2 0 0 0-1.34 0 .75.75 0 0 0-.35.39l-2.36 5.8 2.35-5.55a.74.74 0 0 1 .35-.36zm-7.61.05a1 1 0 0 1 .75-.24H27a1.06 1.06 0 0 1 .7.24.78.78 0 0 1 .28.63l-.12 9.33a.74.74 0 0 1-.09.35.62.62 0 0 0 .23-.53V30a.78.78 0 0 0-.29-.62 1.07 1.07 0 0 0-.71-.23h-.24a1 1 0 0 0-.75.25 2.48 2.48 0 0 0-.4.66l-1.5 3.14 1.48-3a2.43 2.43 0 0 1 .41-.68zm-3.15 6.2L20.13 30a2.45 2.45 0 0 0-.4-.66 1 1 0 0 0-.75-.25h-.27a1.06 1.06 0 0 0-.71.23.79.79 0 0 0-.22.31.82.82 0 0 1 .21-.26 1.07 1.07 0 0 1 .71-.22h.3a1 1 0 0 1 .74.26 2.48 2.48 0 0 1 .39.66l2.65 5.77zM19 39.36a.6.6 0 0 1-.31.57.58.58 0 0 0 .45-.63v-7.99zm-4.15-7.5a.73.73 0 0 1 .45.14.63.63 0 0 1 .19.53l-.09 6.77a.62.62 0 0 1-.21.52.73.73 0 0 1-.44.13h.13a.73.73 0 0 0 .46-.14.62.62 0 0 0 .2-.52v-6.77a.63.63 0 0 0-.2-.52.72.72 0 0 0-.49-.14zM24 36.53l1.3-2.69-1.41 2.81a1.8 1.8 0 0 1-.31.44 1.71 1.71 0 0 0 .42-.56z" fill="#383838"/></svg>